Russolo-72ptExtraLight.ufo
<glyph name="hyphen" format="2">
  <advance width="486"/>
  <unicode hex="002D"/>
  <note>
hyphen
</note>
  <outline>
    <contour>
      <point x="66" y="467" type="line"/>
      <point x="399" y="467" type="line"/>
      <point x="420" y="527" type="line"/>
      <point x="87" y="527" type="line"/>
    </contour>
  </outline>
</glyph>
<glyph name="period" format="2">
  <advance width="331"/>
  <unicode hex="002E"/>
  <note>
period
</note>
  <outline>
    <contour>
      <point x="165" y="-14" type="curve" smooth="yes"/>
      <point x="190" y="-14"/>
      <point x="209" y="5"/>
      <point x="209" y="31" type="curve" smooth="yes"/>
      <point x="209" y="57"/>
      <point x="190" y="75"/>
      <point x="165" y="75" type="curve" smooth="yes"/>
      <point x="140" y="75"/>
      <point x="121" y="57"/>
      <point x="121" y="31" type="curve" smooth="yes"/>
      <point x="121" y="5"/>
      <point x="140" y="-14"/>
    </contour>
  </outline>
</glyph>
<glyph name="six" format="2">
  <advance width="1000"/>
  <unicode hex="0036"/>
  <note>
six
</note>
  <outline>
    <contour>
      <point x="494" y="-33" type="curve" smooth="yes"/>
      <point x="767" y="-38"/>
      <point x="945" y="168"/>
      <point x="945" y="426" type="curve" smooth="yes"/>
      <point x="945" y="682"/>
      <point x="760" y="877"/>
      <point x="521" y="877" type="curve" smooth="yes"/>
      <point x="302" y="877"/>
      <point x="166" y="713"/>
      <point x="130" y="529" type="curve"/>
      <point x="146" y="464" type="line"/>
      <point x="147" y="666"/>
      <point x="156" y="755"/>
      <point x="198" y="866" type="curve" smooth="yes"/>
      <point x="297" y="1131"/>
      <point x="437" y="1317"/>
      <point x="737" y="1423" type="curve"/>
      <point x="737" y="1434" type="line"/>
      <point x="514" y="1374"/>
      <point x="347" y="1253"/>
      <point x="219" y="1042" type="curve" smooth="yes"/>
      <point x="136" y="905"/>
      <point x="78" y="744"/>
      <point x="78" y="523" type="curve" smooth="yes"/>
      <point x="78" y="173"/>
      <point x="228" y="-29"/>
    </contour>
    <contour>
      <point x="512" y="-19" type="curve" smooth="yes"/>
      <point x="253" y="-15"/>
      <point x="150" y="227"/>
      <point x="154" y="462" type="curve" smooth="yes"/>
      <point x="157" y="635"/>
      <point x="294" y="863"/>
      <point x="531" y="863" type="curve" smooth="yes"/>
      <point x="787" y="863"/>
      <point x="869" y="599"/>
      <point x="869" y="426" type="curve" smooth="yes"/>
      <point x="869" y="233"/>
      <point x="781" y="-24"/>
    </contour>
  </outline>
</glyph>
<glyph name="I" format="2">
  <advance width="408"/>
  <unicode hex="0049"/>
  <note>
I
</note>
  <anchor x="204" y="0" name="bottom"/>
  <anchor x="205" y="0" name="ogonek"/>
  <anchor x="204" y="1430" name="top"/>
  <anchor x="23" y="1430" name="topleft"/>
  <outline>
    <contour>
      <point x="174" y="0" type="line"/>
      <point x="234" y="0" type="line"/>
      <point x="234" y="1430" type="line"/>
      <point x="174" y="1430" type="line"/>
    </contour>
  </outline>
</glyph>
<glyph name="Q" format="2">
  <advance width="1568"/>
  <unicode hex="0051"/>
  <note>
Q
</note>
  <anchor x="778" y="0" name="bottom"/>
  <anchor x="778" y="1430" name="top"/>
  <anchor x="784" y="716.0049999999999" name="center"/>
  <anchor x="956" y="-4.0" name="ogonek"/>
  <anchor x="30" y="1436.0099999999998" name="topleft"/>
  <anchor x="1538" y="1436.0099999999998" name="topright"/>
  <outline>
    <contour>
      <point x="1068" y="-379" type="curve" smooth="yes"/>
      <point x="1107" y="-379"/>
      <point x="1130" y="-372"/>
      <point x="1148" y="-366" type="curve"/>
      <point x="1136" y="-366"/>
      <point x="1123" y="-366"/>
      <point x="1111" y="-366" type="curve" smooth="yes"/>
      <point x="835" y="-366"/>
      <point x="813" y="-325"/>
      <point x="813" y="-161" type="curve" smooth="yes"/>
      <point x="813" y="-20" type="line"/>
      <point x="746" y="-20" type="line"/>
      <point x="746" y="-187" type="line" smooth="yes"/>
      <point x="746" y="-270"/>
      <point x="794" y="-315"/>
      <point x="834" y="-338" type="curve" smooth="yes"/>
      <point x="880" y="-365"/>
      <point x="943" y="-379"/>
    </contour>
    <component base="O" yScale="1.007" yOffset="-4"/>
  </outline>
</glyph>
<glyph name="U" format="2">
  <advance width="1387"/>
  <unicode hex="0055"/>
  <note>
U
</note>
  <anchor x="732" y="0" name="bottom"/>
  <anchor x="831" y="0" name="ogonek"/>
  <anchor x="732" y="1430" name="top"/>
  <anchor x="1562" y="1430" name="topright"/>
  <outline>
    <contour>
      <point x="694" y="-24" type="curve" smooth="yes"/>
      <point x="1002" y="-24"/>
      <point x="1250" y="243"/>
      <point x="1250" y="581" type="curve" smooth="yes"/>
      <point x="1250" y="1430" type="line"/>
      <point x="1225" y="1430" type="line"/>
      <point x="1225" y="559" type="line" smooth="yes"/>
      <point x="1225" y="236"/>
      <point x="941" y="2"/>
      <point x="692" y="2" type="curve" smooth="yes"/>
      <point x="443" y="2"/>
      <point x="199" y="236"/>
      <point x="199" y="559" type="curve" smooth="yes"/>
      <point x="199" y="1430" type="line"/>
      <point x="139" y="1430" type="line"/>
      <point x="139" y="551" type="line" smooth="yes"/>
      <point x="139" y="185"/>
      <point x="422" y="-24"/>
    </contour>
  </outline>
</glyph>
<glyph name="e" format="2">
  <advance width="1006"/>
  <unicode hex="0065"/>
  <note>
e
</note>
  <anchor x="503" y="-12" name="bottom"/>
  <anchor x="642" y="0" name="ogonek"/>
  <anchor x="503" y="914" name="top"/>
  <outline>
    <contour>
      <point x="501" y="-24" type="curve" smooth="yes"/>
      <point x="698" y="-24"/>
      <point x="891" y="87"/>
      <point x="943" y="262" type="curve"/>
      <point x="867" y="262" type="line"/>
      <point x="795" y="91"/>
      <point x="665" y="-11"/>
      <point x="501" y="-11" type="curve" smooth="yes"/>
      <point x="284" y="-11"/>
      <point x="129" y="170"/>
      <point x="129" y="454" type="curve" smooth="yes"/>
      <point x="129" y="753"/>
      <point x="291" y="925"/>
      <point x="501" y="925" type="curve" smooth="yes"/>
      <point x="692" y="925"/>
      <point x="860" y="783"/>
      <point x="887" y="507" type="curve"/>
      <point x="964" y="507" type="line"/>
      <point x="943" y="781"/>
      <point x="724" y="938"/>
      <point x="501" y="938" type="curve" smooth="yes"/>
      <point x="236" y="938"/>
      <point x="52" y="714"/>
      <point x="52" y="444" type="curve" smooth="yes"/>
      <point x="52" y="158"/>
      <point x="249" y="-24"/>
    </contour>
    <contour>
      <point x="102" y="507" type="line"/>
      <point x="904" y="507" type="line"/>
      <point x="904" y="517" type="line"/>
      <point x="102" y="517" type="line"/>
    </contour>
  </outline>
</glyph>
<glyph name="h" format="2">
  <advance width="1028"/>
  <unicode hex="0068"/>
  <note>
h
</note>
  <anchor x="524" y="0" name="bottom"/>
  <anchor x="178" y="1250" name="center"/>
  <anchor x="524" y="1514" name="top"/>
  <outline>
    <contour>
      <point x="141" y="0" type="line"/>
      <point x="213" y="0" type="line"/>
      <point x="213" y="612" type="line" smooth="yes"/>
      <point x="213" y="776"/>
      <point x="377" y="926"/>
      <point x="586" y="926" type="curve" smooth="yes"/>
      <point x="770" y="926"/>
      <point x="854" y="810"/>
      <point x="854" y="539" type="curve" smooth="yes"/>
      <point x="854" y="0" type="line"/>
      <point x="926" y="0" type="line"/>
      <point x="926" y="536" type="line" smooth="yes"/>
      <point x="926" y="810"/>
      <point x="800" y="938"/>
      <point x="596" y="938" type="curve" smooth="yes"/>
      <point x="399" y="938"/>
      <point x="226" y="819"/>
      <point x="205" y="635" type="curve"/>
      <point x="213" y="652" type="line"/>
      <point x="213" y="1514" type="line"/>
      <point x="141" y="1514" type="line"/>
    </contour>
  </outline>
</glyph>
<glyph name="m" format="2">
  <advance width="1673"/>
  <unicode hex="006D"/>
  <note>
m
</note>
  <guideline x="201" y="612" angle="0"/>
  <guideline x="196" y="690" angle="0"/>
  <anchor x="838" y="0" name="bottom"/>
  <anchor x="838" y="914" name="top"/>
  <outline>
    <contour>
      <point x="128" y="0" type="line"/>
      <point x="200" y="0" type="line"/>
      <point x="200" y="612" type="line" smooth="yes"/>
      <point x="200" y="776"/>
      <point x="358" y="926"/>
      <point x="559" y="926" type="curve" smooth="yes"/>
      <point x="735" y="926"/>
      <point x="814" y="810"/>
      <point x="814" y="539" type="curve" smooth="yes"/>
      <point x="814" y="0" type="line"/>
      <point x="886" y="0" type="line"/>
      <point x="885" y="612" type="line"/>
      <point x="885" y="766"/>
      <point x="1039" y="926"/>
      <point x="1240" y="926" type="curve" smooth="yes"/>
      <point x="1417" y="926"/>
      <point x="1498" y="810"/>
      <point x="1498" y="539" type="curve" smooth="yes"/>
      <point x="1498" y="0" type="line"/>
      <point x="1570" y="0" type="line"/>
      <point x="1570" y="536" type="line" smooth="yes"/>
      <point x="1570" y="810"/>
      <point x="1450" y="938"/>
      <point x="1250" y="938" type="curve" smooth="yes"/>
      <point x="1063" y="938"/>
      <point x="890" y="817"/>
      <point x="873" y="640" type="curve"/>
      <point x="878" y="636" type="line"/>
      <point x="851" y="842"/>
      <point x="743" y="938"/>
      <point x="568" y="938" type="curve" smooth="yes"/>
      <point x="392" y="938"/>
      <point x="228" y="839"/>
      <point x="196" y="671" type="curve"/>
      <point x="200" y="662" type="line"/>
      <point x="200" y="910" type="line"/>
      <point x="128" y="910" type="line"/>
    </contour>
  </outline>
</glyph>
<glyph name="r" format="2">
  <advance width="721"/>
  <unicode hex="0072"/>
  <note>
r
</note>
  <anchor x="132" y="0" name="bottom"/>
  <anchor x="442" y="914" name="top"/>
  <outline>
    <contour>
      <point x="128" y="0" type="line"/>
      <point x="200" y="0" type="line"/>
      <point x="200" y="562" type="line" smooth="yes"/>
      <point x="200" y="773"/>
      <point x="305" y="925"/>
      <point x="459" y="925" type="curve" smooth="yes"/>
      <point x="561" y="925"/>
      <point x="635" y="865"/>
      <point x="635" y="773" type="curve" smooth="yes"/>
      <point x="635" y="749"/>
      <point x="630" y="713"/>
      <point x="618" y="688" type="curve"/>
      <point x="670" y="669" type="line"/>
      <point x="691" y="698"/>
      <point x="707" y="734"/>
      <point x="707" y="772" type="curve" smooth="yes"/>
      <point x="707" y="877"/>
      <point x="589" y="938"/>
      <point x="473" y="938" type="curve" smooth="yes"/>
      <point x="316" y="938"/>
      <point x="201" y="826"/>
      <point x="173" y="552" type="curve"/>
      <point x="200" y="625" type="line"/>
      <point x="200" y="910" type="line"/>
      <point x="128" y="910" type="line"/>
    </contour>
  </outline>
</glyph>
<glyph name="y" format="2">
  <advance width="910"/>
  <unicode hex="0079"/>
  <note>
y
</note>
  <guideline x="657" y="419" angle="69.7563"/>
  <guideline x="677" y="467" angle="244.9198"/>
  <anchor x="555" y="0" name="bottom"/>
  <anchor x="455" y="914" name="top"/>
  <outline>
    <contour>
      <point x="193" y="-548" type="curve" smooth="yes"/>
      <point x="262" y="-548"/>
      <point x="294" y="-490"/>
      <point x="336" y="-375" type="curve" smooth="yes"/>
      <point x="421" y="-142"/>
      <point x="442" y="-79"/>
      <point x="464" y="-16" type="curve"/>
      <point x="898" y="910" type="line"/>
      <point x="885" y="910" type="line"/>
      <point x="481" y="48" type="line"/>
      <point x="497" y="63" type="line"/>
      <point x="90" y="910" type="line"/>
      <point x="12" y="910" type="line"/>
      <point x="459" y="-20" type="line"/>
      <point x="463" y="15" type="line"/>
      <point x="334" y="-347" type="line" smooth="yes"/>
      <point x="298" y="-447"/>
      <point x="271" y="-535"/>
      <point x="201" y="-535" type="curve" smooth="yes"/>
      <point x="164" y="-535"/>
      <point x="105" y="-514"/>
      <point x="114" y="-396" type="curve"/>
      <point x="69" y="-396" type="line"/>
      <point x="80" y="-516"/>
      <point x="143" y="-548"/>
    </contour>
  </outline>
</glyph>
<glyph name="ordfeminine" format="2">
  <advance width="703"/>
  <unicode hex="00AA"/>
  <note>
ordfeminine
</note>
  <outline>
    <contour>
      <point x="315" y="845" type="curve" smooth="yes"/>
      <point x="360" y="845"/>
      <point x="526" y="855"/>
      <point x="540" y="1064" type="curve"/>
      <point x="540" y="863" type="line"/>
      <point x="583" y="863" type="line"/>
      <point x="583" y="1435" type="line"/>
      <point x="538" y="1435" type="line"/>
      <point x="538" y="1230" type="line"/>
      <point x="524" y="1440"/>
      <point x="355" y="1451"/>
      <point x="311" y="1451" type="curve" smooth="yes"/>
      <point x="162" y="1451"/>
      <point x="77" y="1322"/>
      <point x="77" y="1146" type="curve" smooth="yes"/>
      <point x="77" y="954"/>
      <point x="165" y="845"/>
    </contour>
    <contour>
      <point x="320" y="854" type="curve" smooth="yes"/>
      <point x="169" y="854"/>
      <point x="127" y="980"/>
      <point x="127" y="1146" type="curve" smooth="yes"/>
      <point x="127" y="1299"/>
      <point x="156" y="1442"/>
      <point x="317" y="1442" type="curve" smooth="yes"/>
      <point x="448" y="1442"/>
      <point x="536" y="1357"/>
      <point x="536" y="1146" type="curve" smooth="yes"/>
      <point x="536" y="957"/>
      <point x="457" y="854"/>
    </contour>
    <contour>
      <point x="100" y="747" type="line"/>
      <point x="588" y="747" type="line"/>
      <point x="588" y="767" type="line"/>
      <point x="100" y="767" type="line"/>
    </contour>
  </outline>
</glyph>
<glyph name="registered" format="2">
  <advance width="1663"/>
  <unicode hex="00AE"/>
  <note>
registered
</note>
  <outline>
    <contour>
      <point x="830" y="-10" type="curve" smooth="yes"/>
      <point x="1018" y="-10"/>
      <point x="1200" y="66"/>
      <point x="1342" y="204" type="curve" smooth="yes"/>
      <point x="1477" y="336"/>
      <point x="1548" y="515"/>
      <point x="1548" y="708" type="curve" smooth="yes"/>
      <point x="1548" y="904"/>
      <point x="1474" y="1084"/>
      <point x="1342" y="1216" type="curve" smooth="yes"/>
      <point x="1206" y="1352"/>
      <point x="1026" y="1426"/>
      <point x="830" y="1426" type="curve" smooth="yes"/>
      <point x="635" y="1426"/>
      <point x="460" y="1353"/>
      <point x="328" y="1218" type="curve" smooth="yes"/>
      <point x="191" y="1078"/>
      <point x="114" y="899"/>
      <point x="114" y="708" type="curve" smooth="yes"/>
      <point x="114" y="515"/>
      <point x="189" y="338"/>
      <point x="326" y="202" type="curve" smooth="yes"/>
      <point x="469" y="60"/>
      <point x="644" y="-10"/>
    </contour>
    <contour>
      <point x="830" y="26" type="curve" smooth="yes"/>
      <point x="652" y="26"/>
      <point x="480" y="97"/>
      <point x="350" y="228" type="curve" smooth="yes"/>
      <point x="219" y="360"/>
      <point x="148" y="532"/>
      <point x="148" y="708" type="curve" smooth="yes"/>
      <point x="148" y="889"/>
      <point x="220" y="1060"/>
      <point x="352" y="1194" type="curve" smooth="yes"/>
      <point x="478" y="1322"/>
      <point x="643" y="1392"/>
      <point x="830" y="1392" type="curve" smooth="yes"/>
      <point x="1015" y="1392"/>
      <point x="1186" y="1322"/>
      <point x="1316" y="1192" type="curve" smooth="yes"/>
      <point x="1444" y="1064"/>
      <point x="1516" y="889"/>
      <point x="1516" y="708" type="curve" smooth="yes"/>
      <point x="1516" y="521"/>
      <point x="1446" y="355"/>
      <point x="1318" y="230" type="curve" smooth="yes"/>
      <point x="1190" y="105"/>
      <point x="1018" y="26"/>
    </contour>
    <contour>
      <point x="586" y="310" type="line"/>
      <point x="621" y="310" type="line"/>
      <point x="621" y="681" type="line"/>
      <point x="867" y="681" type="line"/>
      <point x="1070" y="310" type="line"/>
      <point x="1104" y="310" type="line"/>
      <point x="896" y="686" type="line"/>
      <point x="1030" y="701"/>
      <point x="1099" y="773"/>
      <point x="1099" y="904" type="curve" smooth="yes"/>
      <point x="1099" y="1056"/>
      <point x="1022" y="1130"/>
      <point x="790" y="1130" type="curve" smooth="yes"/>
      <point x="586" y="1130" type="line"/>
    </contour>
    <contour>
      <point x="621" y="711" type="line"/>
      <point x="621" y="1100" type="line"/>
      <point x="832" y="1100" type="line" smooth="yes"/>
      <point x="994" y="1100"/>
      <point x="1063" y="1041"/>
      <point x="1063" y="903" type="curve" smooth="yes"/>
      <point x="1063" y="769"/>
      <point x="995" y="711"/>
      <point x="836" y="711" type="curve" smooth="yes"/>
    </contour>
  </outline>
</glyph>
<glyph name="idotless" format="2">
  <advance width="333"/>
  <unicode hex="0131"/>
  <note>
dotlessi
</note>
  <anchor x="167" y="0" name="bottom"/>
  <anchor x="179" y="0" name="ogonek"/>
  <anchor x="167" y="914" name="top"/>
  <outline>
    <contour>
      <point x="128" y="0" type="line"/>
      <point x="205" y="0" type="line"/>
      <point x="205" y="910" type="line"/>
      <point x="128" y="910" type="line"/>
    </contour>
  </outline>
</glyph>
<glyph name="kgreenlandic" format="2">
  <advance width="839"/>
  <unicode hex="0138"/>
  <anchor x="435" y="0" name="bottom"/>
  <anchor x="435" y="914" name="top"/>
  <outline>
    <contour>
      <point x="128" y="0" type="line"/>
      <point x="206" y="0" type="line"/>
      <point x="206" y="911" type="line"/>
      <point x="128" y="911" type="line"/>
    </contour>
    <contour>
      <point x="742" y="0" type="line"/>
      <point x="839" y="0" type="line"/>
      <point x="313" y="551" type="line"/>
      <point x="261" y="504" type="line"/>
    </contour>
    <contour>
      <point x="179" y="420" type="line"/>
      <point x="711" y="910" type="line"/>
      <point x="685" y="910" type="line"/>
      <point x="175" y="446" type="line"/>
    </contour>
  </outline>
</glyph>
<glyph name="acutecomb" format="2">
  <unicode hex="0301"/>
  <note>
acute
</note>
  <anchor x="170" y="914" name="_top"/>
  <anchor x="170" y="1276" name="top"/>
  <outline>
    <contour>
      <point x="84" y="1063" type="curve"/>
      <point x="90" y="1063" type="line"/>
      <point x="180" y="1169"/>
      <point x="235" y="1247"/>
      <point x="265" y="1316" type="curve"/>
      <point x="210" y="1316" type="line"/>
      <point x="188" y="1259"/>
      <point x="110" y="1114"/>
    </contour>
  </outline>
</glyph>
<glyph name="dieresiscomb" format="2">
  <unicode hex="0308"/>
  <note>
dieresis
</note>
  <anchor x="225" y="914" name="_top"/>
  <anchor x="225" y="1239" name="top"/>
  <outline>
    <contour>
      <point x="355" y="1147" type="curve" smooth="yes"/>
      <point x="381" y="1147"/>
      <point x="402" y="1166"/>
      <point x="402" y="1193" type="curve" smooth="yes"/>
      <point x="402" y="1221"/>
      <point x="380" y="1239"/>
      <point x="355" y="1239" type="curve" smooth="yes"/>
      <point x="330" y="1239"/>
      <point x="308" y="1221"/>
      <point x="308" y="1193" type="curve" smooth="yes"/>
      <point x="308" y="1166"/>
      <point x="329" y="1147"/>
    </contour>
    <contour>
      <point x="95" y="1147" type="curve" smooth="yes"/>
      <point x="121" y="1147"/>
      <point x="142" y="1166"/>
      <point x="142" y="1193" type="curve" smooth="yes"/>
      <point x="142" y="1221"/>
      <point x="120" y="1239"/>
      <point x="95" y="1239" type="curve" smooth="yes"/>
      <point x="70" y="1239"/>
      <point x="48" y="1221"/>
      <point x="48" y="1193" type="curve" smooth="yes"/>
      <point x="48" y="1166"/>
      <point x="69" y="1147"/>
    </contour>
  </outline>
</glyph>
<glyph name="slashlongcomb" format="2">
  <unicode hex="0338"/>
  <anchor x="372" y="469" name="_center"/>
  <outline>
    <contour>
      <point x="12" y="-98" type="line"/>
      <point x="54" y="-98" type="line"/>
      <point x="731" y="1036" type="line"/>
      <point x="689" y="1036" type="line"/>
    </contour>
  </outline>
</glyph>
<glyph name="bullet" format="2">
  <advance width="592"/>
  <unicode hex="2022"/>
  <note>
bullet
</note>
  <outline>
    <contour>
      <point x="295" y="569" type="curve" smooth="yes"/>
      <point x="395" y="569"/>
      <point x="478" y="651"/>
      <point x="478" y="752" type="curve" smooth="yes"/>
      <point x="478" y="853"/>
      <point x="397" y="933"/>
      <point x="297" y="933" type="curve" smooth="yes"/>
      <point x="196" y="933"/>
      <point x="114" y="853"/>
      <point x="114" y="752" type="curve" smooth="yes"/>
      <point x="114" y="651"/>
      <point x="196" y="569"/>
    </contour>
  </outline>
</glyph>
<glyph name="lozenge" format="2">
  <advance width="1148"/>
  <unicode hex="25CA"/>
  <note>
lozenge
</note>
  <outline>
    <contour>
      <point x="574" y="-212" type="line"/>
      <point x="941" y="578" type="line"/>
      <point x="574" y="1362" type="line"/>
      <point x="207" y="578" type="line"/>
    </contour>
    <contour>
      <point x="574" y="-496" type="line"/>
      <point x="77" y="578" type="line"/>
      <point x="574" y="1641" type="line"/>
      <point x="1071" y="578" type="line"/>
    </contour>
  </outline>
</glyph>
<glyph name="leftanglebracket-math" format="2">
  <advance width="608"/>
  <unicode hex="27E8"/>
  <outline>
    <contour>
      <point x="550" y="198" type="line"/>
      <point x="540" y="226" type="line"/>
      <point x="95" y="700" type="line"/>
      <point x="541" y="1176" type="line"/>
      <point x="552" y="1203" type="line"/>
      <point x="26" y="700" type="line"/>
    </contour>
  </outline>
</glyph>
<glyph name="apple" format="2">
  <advance width="1320"/>
  <unicode hex="F000"/>
  <note>
apple
</note>
  <outline>
    <contour>
      <point x="442" y="-34" type="curve" smooth="yes"/>
      <point x="443" y="-34"/>
      <point x="514" y="-4"/>
      <point x="517" y="-3" type="curve" smooth="yes"/>
      <point x="567" y="17"/>
      <point x="638" y="30"/>
      <point x="694" y="30" type="curve" smooth="yes"/>
      <point x="748" y="30"/>
      <point x="816" y="17"/>
      <point x="864" y="-3" type="curve" smooth="yes"/>
      <point x="935" y="-32"/>
      <point x="932" y="-34"/>
      <point x="942" y="-34" type="curve" smooth="yes"/>
      <point x="986" y="-34"/>
      <point x="960" y="-30"/>
      <point x="1046" y="58" type="curve" smooth="yes"/>
      <point x="1060" y="72"/>
      <point x="1133" y="198"/>
      <point x="1230" y="414" type="curve"/>
      <point x="1061" y="497"/>
      <point x="981" y="579"/>
      <point x="981" y="724" type="curve" smooth="yes"/>
      <point x="981" y="859"/>
      <point x="1047" y="924"/>
      <point x="1215" y="1035" type="curve"/>
      <point x="1087" y="1186"/>
      <point x="1072" y="1202"/>
      <point x="960" y="1202" type="curve" smooth="yes"/>
      <point x="941" y="1202"/>
      <point x="935" y="1199"/>
      <point x="900" y="1184" type="curve" smooth="yes"/>
      <point x="830" y="1154"/>
      <point x="763" y="1134"/>
      <point x="692" y="1134" type="curve" smooth="yes"/>
      <point x="623" y="1134"/>
      <point x="535" y="1156"/>
      <point x="481" y="1182" type="curve" smooth="yes"/>
      <point x="446" y="1199"/>
      <point x="450" y="1200"/>
      <point x="420" y="1200" type="curve" smooth="yes"/>
      <point x="243" y="1200"/>
      <point x="115" y="1000"/>
      <point x="115" y="720" type="curve" smooth="yes"/>
      <point x="115" y="506"/>
      <point x="212" y="224"/>
      <point x="333" y="87" type="curve"/>
      <point x="401" y="-3"/>
      <point x="424" y="-34"/>
    </contour>
    <contour>
      <point x="757" y="1194" type="curve"/>
      <point x="704" y="1194" type="line"/>
      <point x="712" y="1194" type="line" smooth="yes"/>
      <point x="778" y="1194"/>
      <point x="879" y="1383"/>
      <point x="879" y="1521" type="curve" smooth="yes"/>
      <point x="879" y="1532"/>
      <point x="879" y="1540"/>
      <point x="877" y="1548" type="curve"/>
      <point x="864" y="1445"/>
      <point x="819" y="1347"/>
      <point x="819" y="1227" type="curve" smooth="yes"/>
      <point x="819" y="1203"/>
      <point x="822" y="1178"/>
      <point x="821" y="1196" type="curve"/>
      <point x="757" y="1194"/>
      <point x="757" y="1194"/>
    </contour>
  </outline>
</glyph>
<glyph name="H.t" format="2">
  <advance width="1528"/>
  <note>
H
</note>
  <anchor x="759" y="0" name="bottom"/>
  <anchor x="759" y="715" name="center"/>
  <anchor x="759" y="1430" name="top"/>
  <anchor x="74" y="1430" name="topleft"/>
  <outline>
    <contour>
      <point x="174" y="0" type="line"/>
      <point x="260" y="0" type="line"/>
      <point x="260" y="733" type="line"/>
      <point x="253" y="727" type="line"/>
      <point x="1275" y="727" type="line"/>
      <point x="1268" y="733" type="line"/>
      <point x="1268" y="0" type="line"/>
      <point x="1354" y="0" type="line"/>
      <point x="1354" y="1430" type="line"/>
      <point x="1268" y="1430" type="line"/>
      <point x="1268" y="731" type="line"/>
      <point x="1275" y="737" type="line"/>
      <point x="253" y="737" type="line"/>
      <point x="260" y="731" type="line"/>
      <point x="260" y="1430" type="line"/>
      <point x="174" y="1430" type="line"/>
    </contour>
  </outline>
</glyph>
<glyph name="f_j" format="2">
  <advance width="608"/>
  <anchor x="152" y="0" name="bottom_1"/>
  <anchor x="457" y="0" name="bottom_2"/>
  <anchor x="304.5" y="0" name="caret_1"/>
  <anchor x="152" y="1514" name="top_1"/>
  <anchor x="457" y="1514" name="top_2"/>
  <outline>
    <contour>
      <point x="165" y="0" type="line"/>
      <point x="239" y="0" type="line"/>
      <point x="239" y="939" type="line"/>
      <point x="202" y="900" type="line"/>
      <point x="443" y="900" type="line"/>
      <point x="443" y="910" type="line"/>
      <point x="202" y="910" type="line"/>
      <point x="239" y="871" type="line"/>
      <point x="239" y="1155" type="line" smooth="yes"/>
      <point x="239" y="1439"/>
      <point x="273" y="1518"/>
      <point x="357" y="1518" type="curve"/>
      <point x="412" y="1510"/>
      <point x="450" y="1462"/>
      <point x="450" y="1388" type="curve" smooth="yes"/>
      <point x="450" y="1361"/>
      <point x="445" y="1333"/>
      <point x="438" y="1314" type="curve"/>
      <point x="498" y="1314" type="line"/>
      <point x="505" y="1357"/>
      <point x="508" y="1383"/>
      <point x="508" y="1401" type="curve" smooth="yes"/>
      <point x="508" y="1484"/>
      <point x="435" y="1531"/>
      <point x="350" y="1531" type="curve" smooth="yes"/>
      <point x="190" y="1531"/>
      <point x="165" y="1363"/>
      <point x="165" y="1155" type="curve" smooth="yes"/>
      <point x="165" y="871" type="line"/>
      <point x="203" y="910" type="line"/>
      <point x="27" y="910" type="line"/>
      <point x="27" y="900" type="line"/>
      <point x="203" y="900" type="line"/>
      <point x="165" y="939" type="line"/>
    </contour>
    <contour>
      <point x="330" y="-577" type="curve" smooth="yes"/>
      <point x="533" y="-577"/>
      <point x="496" y="-409"/>
      <point x="496" y="-9" type="curve" smooth="yes"/>
      <point x="496" y="910" type="line"/>
      <point x="424" y="910" type="line"/>
      <point x="424" y="-9" type="line" smooth="yes"/>
      <point x="424" y="-465"/>
      <point x="428" y="-564"/>
      <point x="325" y="-564" type="curve" smooth="yes"/>
      <point x="269" y="-564"/>
      <point x="211" y="-535"/>
      <point x="211" y="-454" type="curve" smooth="yes"/>
      <point x="211" y="-430"/>
      <point x="216" y="-380"/>
      <point x="220" y="-360" type="curve"/>
      <point x="176" y="-360" type="line"/>
      <point x="160" y="-406"/>
      <point x="157" y="-435"/>
      <point x="157" y="-451" type="curve" smooth="yes"/>
      <point x="157" y="-520"/>
      <point x="212" y="-577"/>
    </contour>
  </outline>
</glyph>
